<svg xmlns="http://www.w3.org/2000/svg" version="1.0" viewBox="0 0 1280 340">
<g transform="translate(0.000000,340.000000) scale(0.100000,-0.100000)" fill="#2e0000" stroke="none">
<path d="M6135 3334 c-261 -38 -451 -83 -676 -160 -496 -170 -931 -423 -1209 -703 -178 -179 -285 -339 -342 -511 -29 -86 -32 -107 -32 -220 -1 -120 0 -128 31 -192 65 -137 187 -213 389 -243 57 -9 182 10 266 39 107 38 204 101 310 204 174 168 297 373 384 639 50 151 64 226 44 238 -20 12 -36 -14 -75 -120 -133 -360 -374 -694 -605 -837 -151 -94 -334 -127 -411 -75 -69 46 -97 112 -106 248 -20 310 218 694 637 1025 293 231 757 472 1065 553 196 52 456 67 607 36 141 -29 266 -112 320 -212 78 -143 56 -376 -57 -599 -66 -130 -128 -216 -230 -323 -237 -247 -552 -428 -804 -462 -97 -13 -116 -23 -86 -46 44 -33 299 10 485 82 327 126 613 340 810 606 146 197 211 407 181 586 -28 162 -118 276 -283 357 -142 70 -222 88 -418 91 -91 2 -178 1 -195 -1z"/>
<path d="M5966 3127 c-160 -165 -469 -737 -675 -1256 -209 -522 -322 -1007 -258 -1104 23 -35 115 -88 147 -85 25 3 25 3 31 138 4 74 16 180 27 236 77 385 322 977 590 1425 130 215 213 330 315 431 102 101 102 104 30 187 -86 99 -131 105 -207 28z"/>
<path d="M2600 2907 c0 -13 -36 -86 -51 -101 -4 -5 -23 4 -43 22 -124 109 -428 55 -657 -117 -91 -69 -204 -190 -271 -292 -111 -166 -261 -482 -357 -749 -22 -63 -80 -225 -127 -360 -84 -240 -182 -490 -242 -621 l-31 -65 -83 -23 c-173 -48 -324 -116 -464 -210 -102 -67 -166 -132 -195 -194 -30 -67 -22 -138 15 -124 11 4 16 19 16 45 0 104 176 247 425 345 96 38 235 79 235 70 0 -12 -94 -160 -137 -216 -110 -143 -228 -224 -365 -253 -40 -8 -74 -17 -77 -19 -2 -2 -1 -12 3 -21 5 -13 15 -15 59 -9 179 25 335 111 483 268 66 69 194 242 206 278 6 18 173 32 323 26 259 -9 452 -63 735 -204 166 -83 157 -84 208 20 35 74 55 139 46 160 -13 34 -179 83 -389 114 -167 25 -650 25 -775 0 -46 -9 -86 -15 -87 -13 -2 2 28 68 66 147 38 79 132 290 209 469 228 529 312 704 454 944 144 243 315 410 497 487 76 32 178 52 239 47 l42 -3 -51 -70 c-62 -84 -113 -187 -135 -274 -16 -65 -13 -124 8 -137 15 -9 38 24 38 53 0 73 103 198 277 335 64 50 106 91 110 106 5 20 -5 35 -58 88 -59 60 -99 80 -99 51z"/>
<path d="M12475 2800 c-90 -19 -201 -128 -289 -281 -39 -68 -75 -184 -83 -261 l-6 -68 -91 -88 c-229 -218 -441 -325 -515 -258 -61 56 -52 236 20 379 90 178 225 318 322 334 37 6 37 5 37 -28 0 -19 -11 -52 -25 -74 -56 -91 -57 -107 -8 -89 70 24 117 182 75 250 -27 43 -85 69 -152 68 -107 -1 -225 -83 -341 -237 -67 -88 -143 -237 -155 -302 -5 -32 -23 -57 -83 -118 -130 -135 -255 -217 -335 -220 l-41 -2 1 67 c0 58 6 77 47 156 25 50 70 127 101 173 l55 82 -15 36 c-20 51 -86 111 -121 111 -73 0 -231 -102 -431 -279 l-74 -64 17 39 c50 113 74 182 75 210 0 67 -92 157 -162 158 l-43 1 -7 -60 c-9 -83 -38 -165 -120 -335 -60 -126 -78 -154 -136 -213 -128 -131 -234 -199 -310 -201 -37 -1 -48 4 -72 31 -31 35 -45 76 -54 166 l-6 58 52 47 c146 130 256 270 265 338 4 32 0 46 -26 81 -41 57 -71 75 -124 75 -77 0 -150 -49 -233 -155 -119 -152 -169 -279 -169 -433 0 -92 2 -105 30 -159 53 -104 156 -156 275 -140 93 13 224 90 338 199 l43 41 -21 -49 c-29 -65 -21 -104 35 -162 44 -46 70 -53 86 -24 4 8 26 54 47 101 67 147 152 258 301 392 80 71 227 177 248 177 8 0 1 -25 -17 -70 -48 -115 -73 -218 -68 -276 10 -121 147 -232 250 -204 61 17 156 89 269 201 l106 108 6 -59 c12 -115 57 -179 151 -215 71 -27 182 -17 266 23 91 44 206 133 336 261 l112 110 5 -35 c9 -52 53 -121 98 -154 74 -53 191 -62 285 -20 99 43 253 230 190 230 -8 0 -38 -27 -68 -61 -56 -64 -120 -109 -157 -109 -73 0 -123 69 -129 179 l-4 76 143 145 c143 144 189 208 189 262 0 25 -41 90 -73 116 -23 19 -76 30 -112 22z m100 -140 c9 -15 -21 -76 -68 -138 -69 -88 -171 -196 -175 -184 -5 16 61 163 98 216 63 93 125 138 145 106z m-2795 -335 c0 -30 -19 -69 -70 -145 -39 -58 -139 -164 -147 -157 -7 8 56 161 88 212 64 102 129 147 129 90z"/>
<path d="M9183 2499 c-8 -8 -7 -23 4 -56 24 -69 13 -227 -22 -323 -78 -215 -280 -498 -404 -568 l-41 -23 0 26 c0 42 19 110 77 268 78 216 98 301 84 349 -24 80 -122 152 -179 132 -24 -8 -28 -16 -35 -72 -4 -34 -27 -132 -52 -217 -51 -177 -66 -202 -182 -296 -70 -56 -168 -110 -226 -123 -26 -6 -25 -3 30 71 168 227 201 498 74 606 -82 69 -216 77 -334 19 -126 -62 -250 -201 -287 -319 -15 -48 -20 -90 -19 -154 l2 -88 -69 -76 c-199 -224 -348 -316 -370 -230 -11 44 4 87 80 224 78 140 100 198 94 246 -5 49 -40 64 -270 119 l-27 6 41 97 c27 65 41 114 42 147 1 46 -2 51 -33 73 -58 39 -102 48 -144 28 -98 -46 -186 -169 -173 -239 9 -45 48 -78 130 -107 37 -13 66 -29 66 -35 0 -21 -122 -259 -193 -377 -108 -178 -195 -267 -261 -267 -26 0 -56 -40 -56 -75 0 -24 59 -19 119 11 110 55 263 286 387 584 26 63 50 117 52 120 2 3 12 -6 23 -19 23 -28 21 -37 -42 -202 -78 -205 -83 -298 -18 -365 77 -80 186 -99 278 -49 53 29 209 174 290 269 l41 49 0 -33 c0 -118 95 -216 222 -228 59 -6 128 26 205 93 28 25 56 45 62 45 7 0 40 9 74 21 81 27 197 99 269 167 l57 54 -15 -64 c-8 -34 -16 -86 -17 -115 -2 -61 15 -85 94 -128 66 -36 100 -30 186 31 229 163 463 474 518 689 32 124 13 209 -63 278 -45 40 -52 43 -69 26z m-2053 -253 c0 -22 -45 -179 -57 -199 -8 -14 -31 13 -38 44 -9 40 1 79 35 133 33 51 60 61 60 22z m1060 6 c56 -31 75 -80 74 -197 0 -65 -6 -121 -18 -160 -24 -82 -87 -209 -133 -270 -33 -42 -44 -50 -77 -53 -53 -5 -133 14 -183 44 l-43 25 15 35 c41 99 194 282 309 370 39 30 40 31 27 62 -16 39 -104 122 -129 122 -48 0 -137 -81 -246 -225 -27 -35 -36 -43 -31 -25 29 101 159 237 263 275 54 20 131 18 172 -3z m-357 -679 c40 -20 123 -43 160 -43 37 0 27 -14 -36 -50 -99 -57 -167 -29 -167 66 0 24 2 44 5 44 4 0 20 -7 38 -17z"/>
<path d="M2749 1631 c-116 -37 -230 -121 -355 -262 -96 -109 -173 -229 -205 -322 -35 -101 -37 -166 -6 -227 40 -80 147 -140 220 -124 39 8 153 122 283 283 49 60 91 108 93 105 3 -3 8 -33 12 -68 8 -77 32 -116 92 -145 53 -26 135 -28 180 -5 40 20 154 119 168 145 20 38 -3 41 -40 6 -88 -85 -152 -108 -172 -63 -18 38 -3 86 57 186 56 92 56 93 41 125 -15 32 -86 96 -119 108 -30 11 -80 -35 -201 -183 -242 -295 -371 -430 -413 -430 -43 0 -22 136 39 255 130 250 382 484 541 502 60 7 80 -8 72 -56 -6 -38 7 -61 34 -61 21 0 30 19 30 63 0 64 -64 131 -160 168 -62 23 -118 23 -191 0z"/>
</g>
</svg>