
<svg xmlns="http://www.w3.org/2000/svg" version="1.1" width="700px" height="700px" style="shape-rendering:geometricPrecision; text-rendering:geometricPrecision; image-rendering:optimizeQuality; fill-rule:evenodd; clip-rule:evenodd" xmlns:xlink="http://www.w3.org/1999/xlink">
<g><path fill="#10603d" d="M 330.5,4.5 C 441.426,1.057 530.926,42.7237 599,129.5C 657.194,212.491 673.194,303.158 647,401.5C 627.828,462.211 596.162,515.211 552,560.5C 495.296,616.952 430.13,661.118 356.5,693C 349.161,694.232 342.161,693.232 335.5,690C 259.229,656.045 192.729,608.545 136,547.5C 97.9299,505.012 70.2632,456.346 53,401.5C 24.807,292.973 46.1403,195.64 117,109.5C 174.333,46.5839 245.5,11.5839 330.5,4.5 Z"/></g>
<g><path fill="#0a152f" d="M 576.5,193.5 C 577.992,197.818 579.992,201.818 582.5,205.5C 618.814,289.879 613.98,371.879 568,451.5C 552.641,477.027 534.807,500.693 514.5,522.5C 509.167,527.167 504.167,532.167 499.5,537.5C 455.104,578.639 405.271,611.973 350,637.5C 294.729,611.973 244.896,578.639 200.5,537.5C 195.833,532.167 190.833,527.167 185.5,522.5C 154.003,489.538 129.503,451.872 112,409.5C 92.0799,355.788 89.0799,301.121 103,245.5C 107.005,231.831 111.839,218.498 117.5,205.5C 120.008,201.818 122.008,197.818 123.5,193.5C 172.753,108.2 246.92,62.8663 346,57.5C 435.127,58.5612 506.127,94.5612 559,165.5C 565.109,174.729 570.942,184.063 576.5,193.5 Z"/></g>
<g><path fill="#ff0502" d="M 328.5,329.5 C 327.183,335.678 327.183,342.012 328.5,348.5C 329.298,348.043 329.631,347.376 329.5,346.5C 359.227,274.828 389.06,203.161 419,131.5C 440.76,130.34 462.594,130.173 484.5,131C 485.687,132.019 486.687,133.186 487.5,134.5C 486.079,138.028 485.412,141.694 485.5,145.5C 484.028,149.919 483.362,154.586 483.5,159.5C 480.201,180.315 477.201,201.315 474.5,222.5C 472.98,227.948 471.98,233.614 471.5,239.5C 467.041,272.068 462.375,304.568 457.5,337C 440.5,337.333 423.5,337.667 406.5,338C 400.275,339.779 394.609,342.612 389.5,346.5C 389.167,345.833 388.833,345.167 388.5,344.5C 389.95,332.465 391.617,320.465 393.5,308.5C 395.177,304.455 395.844,300.122 395.5,295.5C 395.34,292.116 395.673,288.783 396.5,285.5C 396.333,284.833 396.167,284.167 396,283.5C 371.472,341.419 347.138,399.419 323,457.5C 301.906,458.66 280.74,458.826 259.5,458C 258.846,453.247 258.513,448.413 258.5,443.5C 260.352,397.151 262.519,350.818 265,304.5C 265.667,295.833 265.667,287.167 265,278.5C 241.972,338.215 219.806,398.215 198.5,458.5C 185.829,458.667 173.162,458.5 160.5,458C 159.426,457.261 158.759,456.261 158.5,455C 194.525,357.095 230.859,259.262 267.5,161.5C 266.277,160.386 264.944,160.219 263.5,161C 230.737,175.769 211.57,200.936 206,236.5C 205.232,248.199 205.565,259.865 207,271.5C 208.108,275.491 209.608,279.325 211.5,283C 211.241,284.261 210.574,285.261 209.5,286C 195.976,287.785 183.643,284.785 172.5,277C 159.6,262.79 155.767,246.29 161,227.5C 167.876,205.243 179.71,186.076 196.5,170C 222.372,145.398 253.039,130.398 288.5,125C 305.277,124.135 321.61,126.302 337.5,131.5C 334.69,197.525 331.69,263.525 328.5,329.5 Z"/></g>
<g><path fill="#26b778" d="M 433.5,408.5 C 432.957,408.56 432.624,408.893 432.5,409.5C 455.824,410.5 479.157,410.833 502.5,410.5C 517.22,411.219 524.886,418.886 525.5,433.5C 523.374,451.002 519.208,468.002 513,484.5C 510,489.167 507,493.833 504,498.5C 494.237,507.312 482.737,511.812 469.5,512C 430.829,512.833 392.162,512.667 353.5,511.5C 352.91,510.201 351.91,509.368 350.5,509C 355.004,494.987 359.004,480.821 362.5,466.5C 396.449,464.847 430.449,463.847 464.5,463.5C 465.915,458.921 466.915,454.255 467.5,449.5C 446.164,449.667 424.831,449.5 403.5,449C 397.393,448.64 391.393,447.64 385.5,446C 377.05,440.929 373.55,433.429 375,423.5C 378.136,409.763 381.47,396.097 385,382.5C 391.916,361.605 406.416,350.105 428.5,348C 465.505,347.167 502.505,347.333 539.5,348.5C 541.339,350.527 541.839,352.86 541,355.5C 537.979,368.447 534.479,381.28 530.5,394C 499.168,394.5 467.835,394.667 436.5,394.5C 435.285,399.121 434.285,403.787 433.5,408.5 Z"/></g>
</svg>
