<svg fill="none" viewBox="1 3 22 18" xmlns="http://www.w3.org/2000/svg">
    <path d="M9.17,17H13V6a1,1,0,0,0-1-1H5"
        style=" stroke-linecap: round; stroke-linejoin: round; stroke-width: 1.4;">
    </path>
    <path d="M3,13v3a1,1,0,0,0,1,1h.87"
        style="stroke-linecap: round; stroke-linejoin: round; stroke-width: 1.4;">
    </path>
    <path d="M14.87,17H13V7h4.25a1,1,0,0,1,1,.73L19,10.5l1.24.31a1,1,0,0,1,.76,1V16a1,1,0,0,1-1,1h-.89"
        style="stroke-linecap: round; stroke-linejoin: round; stroke-width: 1.4;">
    </path>
    <path d="M7,15a2,2,0,1,0,2,2A2,2,0,0,0,7,15Zm10,0a2,2,0,1,0,2,2A2,2,0,0,0,17,15ZM3,9H9"
        style="stroke-linecap: round; stroke-linejoin: round; stroke-width: 1.4;">
    </path>
</svg>