<svg viewBox="0 0 24 24" xmlns="http://www.w3.org/2000/svg">
<path fill="#2eb1b7" d="M23,12A11,11,0,0,1,1,12a10.827,10.827,0,0,1,.29-2.5,11,11,0,0,1,21.42,0A10.827,10.827,0,0,1,23,12Z"/>
<ellipse fill="#5dc6d1" cx="12" cy="9.5" rx="10.71" ry="8.5"/>
<path fill="#cffeff" d="M15,16a1,1,0,0,1-.707-.293l-3-3A1,1,0,0,1,11,12V6a1,1,0,0,1,2,0v5.586l2.707,2.707A1,1,0,0,1,15,16Z"/>
<path fill="#6c2e7c" d="M12,0A12,12,0,1,0,24,12,12.013,12.013,0,0,0,12,0Zm0,22A10,10,0,1,1,22,12,10.011,10.011,0,0,1,12,22Z"/>
<path fill="#6c2e7c" d="M13,11.586V6a1,1,0,0,0-2,0v6a1,1,0,0,0,.293.707l3,3a1,1,0,0,0,1.414-1.414Z"/>
</svg>