<svg viewBox="200 50 1600 600" xmlns="http://www.w3.org/2000/svg" version="1.1" style="shape-rendering:geometricPrecision; text-rendering:geometricPrecision; image-rendering:optimizeQuality; fill-rule:evenodd; clip-rule:evenodd" xmlns:xlink="http://www.w3.org/1999/xlink">
<g fill="#fff">
    <path d="M 193.5,54.5 C 214.766,52.7765 235.433,55.4432 255.5,62.5C 251.622,153.53 247.789,244.53 244,335.5C 282.404,244.697 320.238,153.697 357.5,62.5C 385.835,62.3334 414.169,62.5 442.5,63C 444.028,64.6477 444.695,66.6477 444.5,69C 425.025,205.49 405.692,341.99 386.5,478.5C 358.159,478.833 329.825,478.5 301.5,477.5C 300.687,476.186 299.687,475.019 298.5,474C 309.32,401.925 319.487,329.758 329,257.5C 298.333,330.833 267.667,404.167 237,477.5C 210.572,478.661 184.072,478.828 157.5,478C 156.333,476.833 155.167,475.667 154,474.5C 157.46,400.25 160.46,325.917 163,251.5C 134.664,327.01 106.831,402.676 79.5,478.5C 63.4965,478.667 47.4965,478.5 31.5,478C 28.7928,476.136 27.9595,473.636 29,470.5C 74.4017,347.461 119.902,224.461 165.5,101.5C 134.818,111.994 112.651,132.327 99,162.5C 88.6411,188.063 85.9744,214.396 91,241.5C 92.7101,246.413 94.5435,251.247 96.5,256C 95.1667,257.333 93.8333,258.667 92.5,260C 77.7037,260.707 63.7037,257.707 50.5,251C 38.84,243.315 32.0067,232.482 30,218.5C 27.3495,189.443 34.6828,163.11 52,139.5C 87.6454,92.0898 134.812,63.7564 193.5,54.5 Z"/>
    <path d="M 548.5,74.5 C 576.834,74.4053 594.334,88.0719 601,115.5C 602.966,144.19 590.133,162.357 562.5,170C 540.107,173.384 522.941,165.55 511,146.5C 498.771,116.202 506.938,93.3692 535.5,78C 539.86,76.4171 544.194,75.2505 548.5,74.5 Z"/>
    <path d="M 771.5,82.5 C 774.572,82.1826 777.572,82.5159 780.5,83.5C 781.896,84.8524 782.563,86.5191 782.5,88.5C 769.813,149.105 756.813,209.605 743.5,270C 776.614,245.59 809.281,220.257 841.5,194C 861.175,193.167 880.842,193.334 900.5,194.5C 902.04,197.291 901.706,199.791 899.5,202C 868.167,223.667 836.833,245.333 805.5,267C 848.775,270.275 870.775,293.608 871.5,337C 871.333,341.5 871.167,346 871,350.5C 867.262,368.286 863.762,386.119 860.5,404C 861.014,415.025 866.847,420.525 878,420.5C 889.409,419.742 898.409,414.742 905,405.5C 911.486,394.696 917.319,383.529 922.5,372C 929.826,371.5 937.159,371.334 944.5,371.5C 948.209,321.186 965.375,276.186 996,236.5C 1014.27,214.785 1037.1,200.285 1064.5,193C 1079.44,190.131 1094.44,189.797 1109.5,192C 1119.7,193.76 1128.03,198.593 1134.5,206.5C 1136.14,202.317 1137.14,197.984 1137.5,193.5C 1165.84,193.333 1194.17,193.5 1222.5,194C 1224.77,198.332 1224.93,202.832 1223,207.5C 1208.86,272.544 1195.36,337.711 1182.5,403C 1182.84,406.889 1183.51,410.722 1184.5,414.5C 1184.39,415.442 1184.06,416.275 1183.5,417C 1147.5,417.667 1111.5,417.667 1075.5,417C 1074.83,416.333 1074.17,415.667 1073.5,415C 1085.54,406.284 1093.71,394.784 1098,380.5C 1107.44,336.475 1116.94,292.475 1126.5,248.5C 1122.97,235.833 1114.64,230.666 1101.5,233C 1088.96,236.363 1079.13,243.529 1072,254.5C 1042.24,299.883 1030.24,349.55 1036,403.5C 1037.56,407.619 1039.39,411.619 1041.5,415.5C 1041.29,416.086 1040.96,416.586 1040.5,417C 1033.66,417.524 1026.82,417.357 1020,416.5C 1001.24,415.055 986.235,421.722 975,436.5C 972.225,441.456 970.892,446.79 971,452.5C 969.938,455.064 968.104,456.731 965.5,457.5C 962.506,455.338 960.006,452.672 958,449.5C 949.75,434.17 944.75,417.836 943,400.5C 934.098,423.821 920.598,443.987 902.5,461C 874.696,482.411 844.029,487.411 810.5,476C 783.924,464.048 771.258,443.381 772.5,414C 772.62,407.47 773.12,400.97 774,394.5C 776.924,380.547 779.591,366.547 782,352.5C 784.94,320.882 772.44,312.715 744.5,328C 739.333,331.833 734.167,335.667 729,339.5C 719.164,385.51 709.33,431.51 699.5,477.5C 671.267,478.828 643.101,478.828 615,477.5C 614.15,475.99 613.317,474.49 612.5,473C 618.557,447.618 623.723,422.118 628,396.5C 617.091,422.06 600.924,443.56 579.5,461C 551.725,480.888 521.391,486.222 488.5,477C 467.337,466.467 455.503,449.3 453,425.5C 451.533,405.9 453.2,386.567 458,367.5C 470.488,309.549 482.655,251.549 494.5,193.5C 522.835,193.333 551.169,193.5 579.5,194C 580.743,195.154 581.743,196.488 582.5,198C 567.405,266.143 553.071,334.476 539.5,403C 539.872,407.411 541.038,411.578 543,415.5C 547.61,418.694 552.777,420.36 558.5,420.5C 564.095,419.913 569.428,418.413 574.5,416C 590.34,405.509 600.673,391.009 605.5,372.5C 615.06,371.183 624.56,371.183 634,372.5C 654.028,279.528 673.861,186.528 693.5,93.5C 719.679,90.1464 745.679,86.4798 771.5,82.5 Z"/>
    <path d="M 1550.5,82.5 C 1553.52,82.3354 1556.52,82.502 1559.5,83C 1560.69,84.0195 1561.69,85.1861 1562.5,86.5C 1540.51,188.788 1518.68,291.122 1497,393.5C 1496.08,401.291 1496.58,408.958 1498.5,416.5C 1462.84,417.314 1427.17,417.481 1391.5,417C 1390.09,416.632 1389.09,415.799 1388.5,414.5C 1400.03,405.787 1407.86,394.454 1412,380.5C 1420.51,339.468 1429.17,298.468 1438,257.5C 1441.84,245.684 1438.01,237.517 1426.5,233C 1416,231.625 1406.66,234.292 1398.5,241C 1382.2,257.665 1370.37,277.165 1363,299.5C 1349.47,333.071 1345.14,367.738 1350,403.5C 1351.56,407.619 1353.39,411.619 1355.5,415.5C 1355.17,415.833 1354.83,416.167 1354.5,416.5C 1323.21,417.659 1291.88,417.826 1260.5,417C 1259.75,415.266 1259.25,413.433 1259,411.5C 1257.83,413.333 1256.67,415.167 1255.5,417C 1244.5,417.667 1233.5,417.667 1222.5,417C 1221.47,415.493 1221.63,413.993 1223,412.5C 1232.72,400.732 1239.55,387.398 1243.5,372.5C 1248.46,371.506 1253.46,371.173 1258.5,371.5C 1262.21,321.188 1279.37,276.188 1310,236.5C 1327.28,215.884 1348.78,201.717 1374.5,194C 1390.7,190.236 1407.03,189.569 1423.5,192C 1433.81,194.22 1442.31,198.72 1449,205.5C 1457.16,168.22 1464.99,130.887 1472.5,93.5C 1498.68,90.1464 1524.68,86.4798 1550.5,82.5 Z"/>
    <path d="M 1707.5,188.5 C 1719.88,188.13 1732.21,188.63 1744.5,190C 1765.83,195.075 1781,207.575 1790,227.5C 1796.18,243.595 1799.02,260.262 1798.5,277.5C 1813.05,277.53 1827.05,274.696 1840.5,269C 1855.6,262.62 1869.93,254.954 1883.5,246C 1885.85,245.666 1888.18,245.833 1890.5,246.5C 1892.54,252.767 1894.04,259.101 1895,265.5C 1875.68,284.75 1852.85,298.25 1826.5,306C 1816.69,308.743 1806.86,311.243 1797,313.5C 1794.43,340.437 1788.1,366.437 1778,391.5C 1774.13,400.068 1769.63,408.235 1764.5,416C 1744.19,417.52 1723.86,417.853 1703.5,417C 1702.57,416.612 1701.91,415.945 1701.5,415C 1717.22,396.397 1728.39,375.23 1735,351.5C 1738.2,339.984 1740.7,328.317 1742.5,316.5C 1741.66,313.552 1739.66,311.719 1736.5,311C 1730.47,304.574 1727.8,296.907 1728.5,288C 1728.31,274.217 1733.81,263.384 1745,255.5C 1745.35,246.731 1742.85,238.898 1737.5,232C 1729.51,228.425 1721.84,229.092 1714.5,234C 1705,241.175 1697.5,250.008 1692,260.5C 1675.73,290.63 1665.07,322.63 1660,356.5C 1658.56,369.805 1658.22,383.138 1659,396.5C 1659.55,403.068 1661.05,409.401 1663.5,415.5C 1663.17,415.833 1662.83,416.167 1662.5,416.5C 1631.63,417.715 1600.79,417.382 1570,415.5C 1557.58,416.655 1545.08,416.821 1532.5,416C 1532.17,415.667 1531.83,415.333 1531.5,415C 1544.61,403.293 1552.94,388.793 1556.5,371.5C 1560.5,371.5 1564.5,371.5 1568.5,371.5C 1572.79,324.113 1588.62,281.113 1616,242.5C 1639.14,212.012 1669.64,194.012 1707.5,188.5 Z"/>
    <path d="M 1056.5,454.5 C 1103.5,454.167 1150.5,454.5 1197.5,455.5C 1199.4,457.867 1199.9,460.534 1199,463.5C 1194.65,479.883 1190.15,496.216 1185.5,512.5C 1145.84,513.5 1106.17,513.833 1066.5,513.5C 1065.38,519.822 1063.71,525.989 1061.5,532C 1091.17,532.333 1120.83,532.667 1150.5,533C 1171.52,535.679 1181.02,547.513 1179,568.5C 1175.12,591.376 1168.45,613.376 1159,634.5C 1147.51,653.031 1130.68,662.198 1108.5,662C 1059.5,662.833 1010.5,662.667 961.5,661.5C 960.687,660.186 959.687,659.019 958.5,658C 964.007,638.976 969.007,619.81 973.5,600.5C 1016.5,600.5 1059.5,600.5 1102.5,600.5C 1103.83,594.5 1105.17,588.5 1106.5,582.5C 1075.48,582.91 1044.48,582.41 1013.5,581C 997.281,579.783 988.948,571.117 988.5,555C 991.105,538.977 994.605,523.144 999,507.5C 1002.81,490.355 1011.31,476.188 1024.5,465C 1034.6,459.356 1045.26,455.856 1056.5,454.5 Z"/>
    <path d="M 1234.5,454.5 C 1256.84,454.333 1279.17,454.5 1301.5,455C 1302.33,455.833 1303.17,456.667 1304,457.5C 1292.37,505.175 1279.87,552.675 1266.5,600C 1286.5,600.5 1306.5,600.667 1326.5,600.5C 1339.02,552.106 1351.85,503.773 1365,455.5C 1387.43,454.34 1409.93,454.173 1432.5,455C 1433.26,456.512 1434.26,457.846 1435.5,459C 1421.93,508.783 1408.43,558.617 1395,608.5C 1391.31,625.056 1383.14,638.89 1370.5,650C 1360.76,656.248 1350.09,659.915 1338.5,661C 1303.52,662.588 1268.52,662.922 1233.5,662C 1222.19,661.839 1211.52,659.172 1201.5,654C 1194.18,647.52 1190.51,639.354 1190.5,629.5C 1191.36,619.32 1193.2,609.32 1196,599.5C 1209.31,551.271 1222.14,502.938 1234.5,454.5 Z"/>
    <path d="M 1507.5,454.5 C 1554.5,454.167 1601.5,454.5 1648.5,455.5C 1650.4,457.867 1650.9,460.534 1650,463.5C 1645.65,479.883 1641.15,496.216 1636.5,512.5C 1596.84,513.5 1557.17,513.833 1517.5,513.5C 1516.38,519.822 1514.71,525.989 1512.5,532C 1542.17,532.333 1571.83,532.667 1601.5,533C 1622.52,535.679 1632.02,547.513 1630,568.5C 1626.12,591.376 1619.45,613.376 1610,634.5C 1598.51,653.031 1581.68,662.198 1559.5,662C 1510.5,662.833 1461.5,662.667 1412.5,661.5C 1411.69,660.186 1410.69,659.019 1409.5,658C 1415.01,638.976 1420.01,619.81 1424.5,600.5C 1467.5,600.5 1510.5,600.5 1553.5,600.5C 1554.83,594.5 1556.17,588.5 1557.5,582.5C 1526.48,582.91 1495.48,582.41 1464.5,581C 1448.28,579.783 1439.95,571.117 1439.5,555C 1442.1,538.977 1445.6,523.144 1450,507.5C 1453.81,490.355 1462.31,476.188 1475.5,465C 1485.6,459.356 1496.26,455.856 1507.5,454.5 Z"/>
    <path d="M 1687.5,454.5 C 1709.84,454.333 1732.17,454.5 1754.5,455C 1755.33,455.833 1756.17,456.667 1757,457.5C 1751.32,482.561 1745.15,507.561 1738.5,532.5C 1758.18,532.833 1777.84,532.5 1797.5,531.5C 1804.27,505.911 1811.27,480.411 1818.5,455C 1841.07,454.173 1863.57,454.34 1886,455.5C 1886.47,456.931 1887.3,458.097 1888.5,459C 1870.11,526.406 1851.94,593.906 1834,661.5C 1811.57,662.826 1789.07,662.826 1766.5,661.5C 1765.69,660.186 1764.69,659.019 1763.5,658C 1770.55,632.951 1777.22,607.784 1783.5,582.5C 1763.82,582.167 1744.16,582.5 1724.5,583.5C 1717.29,609.79 1710.29,636.123 1703.5,662.5C 1681.16,662.667 1658.83,662.5 1636.5,662C 1634.99,660.649 1633.99,658.982 1633.5,657C 1651.74,589.546 1669.74,522.046 1687.5,454.5 Z"/>
    <path d="M 1919.5,454.5 C 1941.84,454.333 1964.17,454.5 1986.5,455C 1987.87,456.242 1988.87,457.742 1989.5,459.5C 1971.03,527.056 1953.03,594.723 1935.5,662.5C 1913.16,662.667 1890.83,662.5 1868.5,662C 1866.64,660.818 1865.64,659.151 1865.5,657C 1883.43,589.462 1901.43,521.962 1919.5,454.5 Z"/>
</g>
</svg>
